<?xml version="1.0" standalone="no"?>
<!DOCTYPE svg PUBLIC "-//W3C//DTD SVG 20010904//EN"
 "http://www.w3.org/TR/2001/REC-SVG-20010904/DTD/svg10.dtd">
<svg version="1.0"
    xmlns="http://www.w3.org/2000/svg" width="1346.000000pt" height="1346.000000pt" viewBox="0 0 1346.000000 1346.000000" preserveAspectRatio="xMidYMid meet">
    <g transform="translate(0.000000,1346.000000) scale(0.100000,-0.100000)" fill="#000000" stroke="none">
        <path d="M6610 11714 c-145 -23 -185 -34 -290 -78 -91 -39 -188 -104 -253
-172 -47 -50 -84 -109 -263 -417 -60 -103 -114 -195 -119 -205 -6 -9 -39 -66
-74 -127 -34 -60 -88 -153 -118 -205 -30 -52 -65 -113 -78 -135 -30 -53 -73
-126 -85 -145 -24 -37 -130 -222 -130 -226 0 -2 -11 -21 -24 -42 -13 -20 -106
-179 -206 -352 -100 -173 -206 -355 -235 -405 -62 -106 -224 -385 -253 -435
-11 -19 -59 -102 -107 -185 -48 -82 -99 -170 -113 -195 -29 -53 -62 -108 -80
-135 -6 -11 -15 -26 -19 -34 -3 -8 -36 -64 -71 -125 -36 -61 -146 -250 -245
-421 -98 -170 -183 -314 -187 -320 -4 -5 -19 -30 -32 -55 -14 -25 -54 -95 -90
-156 -36 -61 -68 -117 -72 -125 -4 -8 -12 -23 -19 -34 -20 -33 -54 -92 -318
-545 -139 -239 -281 -484 -316 -544 -34 -60 -63 -110 -63 -113 0 -2 -8 -16
-19 -31 -14 -21 -313 -535 -411 -707 -14 -24 -272 -468 -358 -615 -11 -19 -43
-73 -70 -120 -26 -47 -103 -179 -170 -294 -67 -115 -122 -211 -122 -214 0 -2
-8 -16 -19 -30 -10 -15 -29 -47 -43 -72 -34 -61 -226 -391 -238 -410 -24 -37
-82 -155 -99 -203 -55 -152 -75 -274 -74 -447 4 -379 162 -685 418 -811 85
-42 193 -73 290 -83 33 -3 2243 -6 4910 -6 5226 0 4913 -3 5070 47 357 113
560 516 511 1008 -12 120 -45 247 -90 348 -20 45 -208 375 -297 522 -10 16
-22 37 -26 45 -3 8 -25 47 -48 85 -23 39 -70 120 -105 180 -35 61 -83 143
-107 184 -45 75 -69 116 -107 183 -17 30 -97 168 -266 457 -9 14 -48 82 -88
151 -40 69 -77 132 -82 140 -22 36 -209 359 -232 400 -14 25 -53 91 -87 148
-33 57 -61 106 -61 108 0 2 -18 33 -40 68 -22 35 -40 68 -40 74 0 6 -3 12 -8
14 -6 2 -108 175 -159 268 -8 14 -25 43 -39 65 -13 22 -27 47 -31 55 -4 8 -21
38 -38 65 -17 28 -35 57 -38 65 -4 8 -15 29 -26 45 -10 17 -28 48 -41 70 -12
22 -37 65 -55 95 -31 52 -688 1180 -725 1245 -9 17 -40 69 -69 117 -28 48 -51
91 -51 97 0 6 -3 11 -7 11 -5 0 -13 10 -19 23 -13 27 -179 313 -240 414 -24
40 -44 75 -44 78 0 3 -11 23 -25 45 -38 60 -185 312 -185 317 0 2 -13 24 -30
48 -16 24 -30 46 -30 49 0 2 -52 94 -116 203 -64 109 -128 218 -141 243 -14
25 -38 65 -53 90 -23 37 -153 261 -223 383 -11 18 -57 97 -104 177 -46 80 -88
152 -93 160 -5 8 -47 80 -93 160 -94 163 -81 140 -270 465 -77 132 -148 254
-158 270 -10 17 -27 48 -39 70 -72 131 -161 226 -278 294 -68 39 -203 91 -277
106 -22 5 -42 9 -45 10 -14 4 -140 18 -175 19 -22 1 -74 -3 -115 -10z m309
-2585 c308 -63 521 -261 592 -551 19 -76 23 -121 24 -243 0 -136 -7 -259 -19
-325 -3 -14 -12 -70 -20 -125 -9 -55 -17 -110 -20 -121 -5 -27 -16 -90 -21
-127 -2 -15 -7 -44 -9 -65 -29 -202 -65 -465 -82 -602 -2 -19 -6 -48 -8 -65
-9 -57 -35 -250 -41 -300 -4 -27 -8 -61 -11 -75 -2 -14 -7 -47 -9 -75 -3 -27
-7 -57 -10 -65 -2 -8 -6 -40 -10 -70 -3 -30 -7 -64 -9 -75 -2 -11 -7 -47 -11
-80 -4 -32 -8 -66 -10 -75 -1 -8 -6 -41 -10 -74 -3 -32 -8 -68 -10 -80 -2 -11
-6 -43 -10 -71 -3 -27 -8 -63 -10 -80 -3 -16 -9 -68 -15 -115 -6 -47 -13 -96
-15 -110 -7 -44 -17 -114 -21 -145 -2 -16 -6 -50 -9 -75 -3 -25 -8 -54 -10
-65 -2 -11 -4 -23 -4 -27 -1 -5 -186 -8 -411 -8 -320 0 -412 3 -415 13 -4 10
-30 210 -50 377 -3 25 -8 59 -10 75 -9 61 -15 103 -30 225 -9 69 -18 136 -20
150 -2 14 -6 48 -9 75 -8 60 -17 134 -21 155 -2 9 -6 43 -10 75 -7 66 -13 106
-20 145 -2 14 -7 50 -10 81 -3 31 -7 66 -10 77 -2 12 -7 51 -10 88 -4 37 -11
80 -15 95 -5 15 -6 29 -4 32 2 2 0 28 -6 58 -5 30 -12 79 -15 109 -3 30 -8 66
-10 80 -2 14 -7 49 -10 79 -4 30 -8 61 -10 70 -2 9 -6 44 -10 76 -8 70 -11 94
-20 155 -13 91 -33 217 -40 261 -3 15 -7 46 -10 69 -3 24 -7 46 -9 49 -2 3 -7
33 -10 66 -4 33 -10 80 -14 105 -9 56 -9 392 -1 440 10 51 39 159 49 178 4 10
19 39 31 65 90 184 324 343 547 373 26 3 49 8 52 11 12 11 238 -1 319 -18z
m-33 -4414 c322 -62 575 -284 663 -580 25 -88 32 -132 32 -220 0 -88 -7 -132
-32 -220 -39 -130 -129 -279 -217 -356 -75 -67 -93 -79 -169 -123 -147 -85
-312 -123 -491 -113 -228 12 -417 97 -577 261 -153 157 -227 333 -228 550 -1
100 5 139 37 241 89 279 338 495 646 559 84 18 247 18 336 1z"/>
    </g>
</svg>
